# xmcd
#
# Track frame offsets:
#	150
#	16195
#	35532
#	48466
#	64253
#	82532
#	98433
#	119847
#	145156
#	167023
#	185909
#	213330
#	229379
#	248209
#	270908
#
# Disc length: 3772 seconds
#
# Revision: 3
# Processed by: cddbd v1.5.2PL0 Copyright (c) Steve Scherf et al.
# Submitted via: EZCDAudioConverter 2.1.7.1
#
DISCID=ca0eba0f
DTITLE=V/A - Cohen Covered
DYEAR=2008
DGENRE=MOJO
TTITLE0=Ian McCulloch - Suzanne
TTITLE1=Katie Melua - In My Secret Life
TTITLE2=Claudine Longet - Hey, That's No Way To Say Goodbye
TTITLE3=Dion - Sisters Of Mercy
TTITLE4=Linda Thompson - Story Of Isaac
TTITLE5=Eyeless In Gaza - Priests
TTITLE6=Allison Crowe - Joan Of Arc
TTITLE7=Suzanna and The Magical Orchestra - Hallelujah
TTITLE8=Nick Cave and The Bad Seeds - Avalanche
TTITLE9=Josh Ritter - Chelsea Hotel No. 2
TTITLE10=Phil Campbell - Take This Longing
TTITLE11=Martha Wainwright - Tower Of Song
TTITLE12=Judy Collins - Song For Bernadette
TTITLE13=Handsome Family - Famous Blue Raincoat
TTITLE14=Mr. David Viner - Tonight Will Be Fine
EXTD=
EXTT0=
EXTT1=
EXTT2=
EXTT3=
EXTT4=
EXTT5=
EXTT6=
EXTT7=
EXTT8=
EXTT9=
EXTT10=
EXTT11=
EXTT12=
EXTT13=
EXTT14=
PLAYORDER=
